<svg width="200" height="200" viewBox="0 0 200 200" fill="none" xmlns="http://www.w3.org/2000/svg">
<g clip-path="url(#clip0_380_789)">
<path fill-rule="evenodd" clip-rule="evenodd" d="M100 33.6453C92.7738 33.6453 86.9159 39.5032 86.9159 46.7294H53.271C53.271 20.9217 74.1923 0.000366211 100 0.000366211C125.808 0.000366211 146.729 20.9217 146.729 46.7294C146.729 72.5371 125.808 93.4583 100 93.4583V59.8135C107.226 59.8135 113.084 53.9555 113.084 46.7294C113.084 39.5032 107.226 33.6453 100 33.6453ZM166.355 100C166.355 92.7742 160.497 86.9163 153.271 86.9163V53.2714C179.079 53.2714 200 74.1927 200 100C200 125.808 179.079 146.729 153.271 146.729C127.463 146.729 106.542 125.808 106.542 100H140.187C140.187 107.226 146.045 113.084 153.271 113.084C160.497 113.084 166.355 107.226 166.355 100ZM46.729 113.084C39.5028 113.084 33.6449 107.226 33.6449 100C33.6449 92.7742 39.5028 86.9163 46.729 86.9163C53.9551 86.9163 59.8131 92.7742 59.8131 100H93.4579C93.4579 74.1927 72.5367 53.2714 46.729 53.2714C20.9213 53.2714 0 74.1927 0 100C0 125.808 20.9213 146.729 46.729 146.729V113.084ZM100 166.355C107.226 166.355 113.084 160.497 113.084 153.271H146.729C146.729 179.079 125.808 200 100 200C74.1923 200 53.271 179.079 53.271 153.271C53.271 127.463 74.1923 106.542 100 106.542V140.187C92.7738 140.187 86.9159 146.045 86.9159 153.271C86.9159 160.497 92.7738 166.355 100 166.355Z" fill="white"/>
</g>
<defs>
<clipPath id="clip0_380_789">
<rect width="200" height="200" fill="white" transform="translate(0 0.000366211)"/>
</clipPath>
</defs>
</svg>
